<svg width="350" height="247" viewBox="0 0 350 247" fill="none" xmlns="http://www.w3.org/2000/svg">
<g clip-path="url(#clip0_4243_1278)">
<path d="M178.752 246.13C189.279 246.13 197.813 237.596 197.813 227.069C197.813 216.543 189.279 208.009 178.752 208.009C168.225 208.009 159.692 216.543 159.692 227.069C159.692 237.596 168.225 246.13 178.752 246.13Z" fill="#0099FF"/>
<path d="M292.621 245.059C303.284 241.857 314.621 238.517 323.078 230.904C330.635 224.101 335.737 213.713 332.606 203.51C329.482 193.328 320.124 186.539 310.462 183.163C304.982 181.248 299.249 180.185 293.518 179.35C287.288 178.443 281.031 177.7 274.776 176.984C249.451 174.088 224.031 172.318 198.516 171.676C185.926 171.359 173.338 171.367 160.746 171.549C149.501 171.713 137.657 171.709 127.225 166.929C119.112 163.212 111.749 156.45 109.489 147.565C106.879 137.307 111.692 126.862 118.596 119.433C122.235 115.517 126.489 112.221 130.876 109.191C135.636 105.903 140.562 102.848 145.595 99.997C155.507 94.3836 165.869 89.6062 176.575 85.7146C181.856 83.7943 187.216 82.1375 192.622 80.6091C197.187 79.3185 201.767 78.026 206.178 76.2676C214.707 72.8683 222.82 67.1103 224.988 57.6706C227.044 48.7239 223.578 39.0116 217.503 32.3653C210.474 24.676 199.876 21.3053 189.716 20.7599C178.309 20.1476 167.165 23.0024 156.444 26.6255C145.009 30.4899 133.82 34.9332 122.144 38.0632C110.565 41.1641 98.762 43.358 86.8422 44.6253C81.007 45.2466 74.9955 45.9482 69.1257 45.4725C64.2062 45.0739 59.3119 43.6271 55.6863 40.1357C52.5775 37.1421 50.7256 33.0278 51.3623 28.686C51.4779 27.8973 52.6759 28.2326 52.561 29.0164C51.786 34.3016 55.3786 39.1718 59.8057 41.6665C64.9223 44.5498 71.1485 44.5537 76.845 44.224C89.1966 43.478 101.465 41.7045 113.522 38.922C125.369 36.216 136.794 32.3476 148.205 28.2153C159.043 24.2907 170.124 20.4602 181.702 19.6102C191.749 18.8726 202.317 20.3362 211.07 25.5865C218.762 30.2008 224.418 37.896 226.221 46.7264C227.982 55.3553 225.543 64.0405 219.011 70.062C212.248 76.2966 202.975 78.9621 194.333 81.417C183.372 84.5307 172.647 88.1703 162.265 92.8961C151.741 97.6727 141.649 103.347 132.099 109.855C122.881 116.154 113.784 124.08 110.869 135.318C109.511 140.553 109.761 146.105 112.034 151.049C114.054 155.445 117.382 159.143 121.258 161.996C130.507 168.801 142.164 170.199 153.336 170.338C165.883 170.494 178.431 170.07 190.982 170.276C216.562 170.696 242.089 172.253 267.564 174.947C273.947 175.623 280.322 176.37 286.69 177.188C292.417 177.924 298.163 178.655 303.794 179.962C313.806 182.286 323.548 186.754 329.771 195.243C332.533 198.922 334.244 203.282 334.721 207.858C335.157 212.633 333.988 217.417 331.829 221.665C327.05 231.067 318.1 237.047 308.594 240.976C303.503 243.081 298.222 244.675 292.952 246.258C292.184 246.488 291.856 245.289 292.621 245.059Z" fill="#F2F2F2"/>
<path d="M52.165 38.7428C57.6573 38.7428 62.1096 34.2904 62.1096 28.7982C62.1096 23.3059 57.6573 18.8535 52.165 18.8535C46.6727 18.8535 42.2203 23.3059 42.2203 28.7982C42.2203 34.2904 46.6727 38.7428 52.165 38.7428Z" fill="#F2F2F2"/>
<path d="M121.156 57.5963C126.648 57.5963 131.101 53.144 131.101 47.6517C131.101 42.1594 126.648 37.707 121.156 37.707C115.664 37.707 111.211 42.1594 111.211 47.6517C111.211 53.144 115.664 57.5963 121.156 57.5963Z" fill="#F2F2F2"/>
<path d="M179.581 19.8893C185.073 19.8893 189.525 15.4369 189.525 9.94465C189.525 4.45237 185.073 0 179.581 0C174.089 0 169.636 4.45237 169.636 9.94465C169.636 15.4369 174.089 19.8893 179.581 19.8893Z" fill="#F2F2F2"/>
<path d="M216.045 62.1539C221.537 62.1539 225.989 57.7016 225.989 52.2093C225.989 46.717 221.537 42.2646 216.045 42.2646C210.552 42.2646 206.1 46.717 206.1 52.2093C206.1 57.7016 210.552 62.1539 216.045 62.1539Z" fill="#F2F2F2"/>
<path d="M166.736 111.048C172.228 111.048 176.68 106.596 176.68 101.104C176.68 95.6116 172.228 91.1592 166.736 91.1592C161.243 91.1592 156.791 95.6116 156.791 101.104C156.791 106.596 161.243 111.048 166.736 111.048Z" fill="#F2F2F2"/>
<path d="M104.167 134.667C109.659 134.667 114.112 130.215 114.112 124.722C114.112 119.23 109.659 114.778 104.167 114.778C98.6749 114.778 94.2226 119.23 94.2226 124.722C94.2226 130.215 98.6749 134.667 104.167 134.667Z" fill="#F2F2F2"/>
<path d="M170.465 171.545C175.957 171.545 180.41 167.093 180.41 161.6C180.41 156.108 175.957 151.656 170.465 151.656C164.973 151.656 160.52 156.108 160.52 161.6C160.52 167.093 164.973 171.545 170.465 171.545Z" fill="#F2F2F2"/>
<path d="M241.735 192.263C247.227 192.263 251.68 187.811 251.68 182.319C251.68 176.826 247.227 172.374 241.735 172.374C236.243 172.374 231.79 176.826 231.79 182.319C231.79 187.811 236.243 192.263 241.735 192.263Z" fill="#F2F2F2"/>
<path d="M325.021 187.705C330.514 187.705 334.966 183.253 334.966 177.761C334.966 172.268 330.514 167.816 325.021 167.816C319.529 167.816 315.077 172.268 315.077 177.761C315.077 183.253 319.529 187.705 325.021 187.705Z" fill="#F2F2F2"/>
<path d="M176.71 28.1777C146.921 28.3881 122.53 52.5959 122.107 82.3828C122.103 82.6578 122.101 84.5916 122.102 87.1207C122.102 90.829 123.575 94.3854 126.197 97.0077C128.819 99.6299 132.375 101.103 136.084 101.104C137.922 101.103 139.742 100.741 141.44 100.037C143.138 99.3325 144.681 98.3006 145.98 97.0001C147.279 95.6995 148.309 94.1557 149.012 92.4569C149.714 90.7581 150.075 88.9375 150.073 87.0993C150.072 85.3788 150.071 84.188 150.071 84.1149C150.07 79.5114 151.267 74.9869 153.545 70.9865C155.823 66.9862 159.103 63.6477 163.063 61.2995C167.023 58.9514 171.525 57.6744 176.128 57.5942C180.731 57.5141 185.275 58.6335 189.314 60.8423C193.353 63.0512 196.748 66.2734 199.164 70.1921C201.58 74.1107 202.934 78.5907 203.093 83.1915C203.253 87.7923 202.211 92.3553 200.072 96.4317C197.933 100.508 194.77 103.957 190.894 106.44L190.898 106.446C190.898 106.446 170.997 119.258 164.93 136.834L164.935 136.835C163.868 140.435 163.328 144.171 163.33 147.926C163.33 149.47 163.421 162.977 163.596 173.939C163.658 177.721 165.204 181.328 167.901 183.981C170.597 186.634 174.229 188.12 178.012 188.119C179.913 188.119 181.795 187.743 183.55 187.013C185.305 186.283 186.898 185.213 188.238 183.865C189.578 182.516 190.638 180.917 191.358 179.157C192.077 177.398 192.441 175.513 192.429 173.612C192.368 163.573 192.335 151.883 192.335 151.034C192.335 140.242 202.746 129.49 211.298 122.477C221.146 114.403 228.232 103.399 231.078 90.9865C231.708 88.4309 232.056 85.814 232.114 83.1826C232.114 75.9257 230.678 68.7404 227.889 62.0409C225.1 55.3413 221.012 49.2599 215.862 44.147C210.712 39.0341 204.602 34.9908 197.882 32.2501C191.163 29.5093 183.967 28.1253 176.71 28.1777Z" fill="#0099FF"/>
<path d="M349.507 246.653H0.493349C0.362746 246.652 0.237625 246.6 0.145408 246.508C0.0531916 246.415 0.00140381 246.29 0.00140381 246.159C0.00140381 246.029 0.0531916 245.904 0.145408 245.811C0.237625 245.719 0.362746 245.666 0.493349 245.666H349.507C349.637 245.666 349.763 245.718 349.855 245.811C349.948 245.903 350 246.029 350 246.159C350 246.29 349.948 246.416 349.855 246.508C349.763 246.601 349.637 246.653 349.507 246.653Z" fill="#3F3D56"/>
<path d="M260.404 113.118C267.27 113.118 272.835 107.553 272.835 100.688C272.835 93.8223 267.27 88.2568 260.404 88.2568C253.539 88.2568 247.974 93.8223 247.974 100.688C247.974 107.553 253.539 113.118 260.404 113.118Z" fill="#2F2E41"/>
<path d="M237.433 241.211H232.354L229.937 221.617H237.435L237.433 241.211Z" fill="#A0616A"/>
<path d="M228.725 239.76H238.522V245.928H222.557C222.557 245.118 222.716 244.316 223.026 243.568C223.336 242.819 223.79 242.139 224.363 241.566C224.936 240.994 225.616 240.539 226.365 240.229C227.113 239.919 227.915 239.76 228.725 239.76Z" fill="#2F2E41"/>
<path d="M276.798 241.211H271.718L269.301 221.617H276.799L276.798 241.211Z" fill="#A0616A"/>
<path d="M268.089 239.76H277.886V245.928H261.921C261.921 245.118 262.08 244.316 262.39 243.568C262.7 242.819 263.155 242.139 263.728 241.566C264.3 240.994 264.98 240.539 265.729 240.229C266.477 239.919 267.279 239.76 268.089 239.76Z" fill="#2F2E41"/>
<path d="M258.515 113.191C264.136 113.191 268.692 108.635 268.692 103.014C268.692 97.3934 264.136 92.8369 258.515 92.8369C252.895 92.8369 248.338 97.3934 248.338 103.014C248.338 108.635 252.895 113.191 258.515 113.191Z" fill="#A0616A"/>
<path d="M264.581 146.023L269.135 135.56C270.241 133.106 270.558 130.369 270.042 127.727C269.526 125.084 268.203 122.667 266.255 120.809C265.855 120.414 265.43 120.044 264.983 119.703C262.736 117.945 259.967 116.987 257.114 116.98C255.196 116.988 253.302 117.409 251.562 118.215C251.413 118.282 251.268 118.352 251.118 118.422C250.833 118.559 250.551 118.708 250.277 118.862C248.494 119.886 246.975 121.315 245.845 123.034C244.715 124.753 244.005 126.713 243.772 128.757L241.762 145.596C241.257 146.918 223.224 194.652 229.53 231.095C229.597 231.484 229.787 231.842 230.072 232.116C230.357 232.389 230.722 232.565 231.113 232.616L237.507 233.486C237.974 233.55 238.447 233.435 238.833 233.163C239.218 232.892 239.486 232.485 239.583 232.023L250.311 180.887C250.377 180.57 250.549 180.283 250.797 180.075C251.046 179.866 251.357 179.746 251.682 179.735C252.006 179.724 252.325 179.823 252.587 180.014C252.85 180.206 253.04 180.48 253.128 180.792L268.285 234.568C268.393 234.958 268.627 235.303 268.949 235.548C269.272 235.794 269.666 235.927 270.071 235.927C270.192 235.926 270.313 235.915 270.432 235.894L278.242 234.39C278.697 234.305 279.103 234.053 279.381 233.684C279.659 233.316 279.79 232.856 279.747 232.396C278.599 219.597 272.499 155.483 264.581 146.023Z" fill="#2F2E41"/>
<path d="M218.964 111.483C218.894 112.088 218.957 112.702 219.149 113.28C219.341 113.858 219.657 114.387 220.076 114.829C220.494 115.272 221.005 115.617 221.571 115.841C222.138 116.065 222.746 116.162 223.354 116.126L229.043 129.796L233.346 123.418L227.284 111.414C227.155 110.396 226.657 109.462 225.884 108.787C225.112 108.112 224.119 107.744 223.093 107.753C222.068 107.762 221.081 108.146 220.32 108.834C219.559 109.521 219.077 110.464 218.964 111.483Z" fill="#A0616A"/>
<path d="M257.951 159.788C258.556 159.716 259.137 159.512 259.655 159.19C260.172 158.869 260.613 158.438 260.946 157.928C261.279 157.418 261.496 156.841 261.582 156.238C261.667 155.635 261.62 155.02 261.443 154.437L273.411 145.72L266.206 143.021L255.944 151.713C254.985 152.076 254.192 152.779 253.716 153.687C253.24 154.595 253.114 155.647 253.361 156.642C253.608 157.637 254.212 158.507 255.058 159.087C255.904 159.667 256.933 159.916 257.951 159.788Z" fill="#A0616A"/>
<path d="M238.439 138.91C237.98 138.91 237.523 138.865 237.073 138.776C235.984 138.568 234.963 138.097 234.1 137.402C233.236 136.707 232.557 135.81 232.122 134.791L224.152 125.073C223.984 124.868 223.861 124.628 223.792 124.372C223.724 124.115 223.711 123.847 223.755 123.585C223.798 123.322 223.897 123.073 224.045 122.852C224.193 122.631 224.387 122.445 224.613 122.305L230.283 118.795C230.492 118.665 230.725 118.578 230.968 118.539C231.211 118.5 231.46 118.51 231.699 118.567C231.939 118.624 232.164 118.729 232.363 118.874C232.562 119.019 232.73 119.202 232.858 119.412L238.475 128.667L249.233 120.717C250.089 120.267 251.079 120.142 252.02 120.362C252.962 120.582 253.793 121.134 254.362 121.916C254.93 122.698 255.198 123.659 255.117 124.623C255.036 125.586 254.611 126.489 253.919 127.165L243.182 136.959C241.921 138.209 240.216 138.911 238.439 138.91Z" fill="#2F2E41"/>
<path d="M267.507 153.526C267.492 153.526 267.478 153.526 267.463 153.526C267.202 153.52 266.944 153.458 266.708 153.346C266.472 153.234 266.262 153.074 266.091 152.875L261.05 146.994C260.878 146.794 260.751 146.559 260.677 146.306C260.602 146.053 260.582 145.787 260.618 145.526C260.654 145.264 260.746 145.014 260.886 144.79C261.026 144.567 261.212 144.375 261.431 144.229L270.871 137.936L262.319 127.655C261.822 126.825 261.639 125.845 261.805 124.892C261.971 123.939 262.474 123.078 263.223 122.465C263.971 121.853 264.915 121.53 265.882 121.556C266.848 121.582 267.773 121.955 268.488 122.607L278.882 132.764C279.7 133.511 280.324 134.446 280.701 135.487C281.079 136.529 281.198 137.647 281.048 138.745C280.898 139.843 280.484 140.888 279.842 141.79C279.199 142.693 278.347 143.426 277.359 143.927L268.864 152.941C268.689 153.126 268.479 153.273 268.246 153.373C268.012 153.474 267.761 153.526 267.507 153.526Z" fill="#2F2E41"/>
<path d="M255.928 131.856C255.847 131.856 255.766 131.85 255.686 131.84C255.335 131.798 255.003 131.655 254.731 131.43C254.458 131.204 254.256 130.905 254.148 130.569L250.36 118.954C250.265 118.661 250.28 118.343 250.401 118.059C250.522 117.775 250.742 117.545 251.02 117.411L251.143 117.353C251.255 117.3 251.365 117.248 251.478 117.197C253.244 116.378 255.167 115.951 257.114 115.945C259.642 115.949 262.114 116.692 264.225 118.082C264.508 118.27 264.706 118.562 264.776 118.895C264.846 119.228 264.782 119.575 264.599 119.861L257.493 130.994C257.326 131.258 257.095 131.476 256.821 131.627C256.548 131.777 256.24 131.856 255.928 131.856Z" fill="#E6E6E6"/>
<path d="M270.205 95.1382C272.451 95.1382 274.272 93.3171 274.272 91.0706C274.272 88.8241 272.451 87.0029 270.205 87.0029C267.958 87.0029 266.137 88.8241 266.137 91.0706C266.137 93.3171 267.958 95.1382 270.205 95.1382Z" fill="#2F2E41"/>
<path d="M256.261 86.5996C253.403 86.5996 250.663 87.7347 248.643 89.755C246.622 91.7754 245.487 94.5157 245.487 97.373V101.931H251.093L253.775 97.373L254.579 101.931H271.592L267.034 97.373C267.034 94.5157 265.899 91.7754 263.879 89.755C261.858 87.7347 259.118 86.5996 256.261 86.5996Z" fill="#2F2E41"/>
<path d="M272.296 88.2843C272.745 86.8777 273.677 85.6748 274.926 84.887C276.175 84.0991 277.661 83.7768 279.124 83.9767C281.717 84.4101 283.766 86.4938 284.987 88.8211C286.209 91.1483 286.773 93.753 287.594 96.2497C288.414 98.7464 289.579 101.257 291.651 102.873C293.724 104.489 296.904 104.927 298.94 103.265C298.707 104.998 297.936 106.613 296.735 107.883C295.534 109.154 293.964 110.014 292.247 110.343C290.53 110.672 288.753 110.453 287.167 109.717C285.581 108.981 284.267 107.764 283.411 106.24C282.337 104.33 282.059 102.09 281.741 99.921C281.422 97.7522 281.009 95.5082 279.726 93.7303C278.444 91.9525 276.044 90.7913 274.007 91.6011L272.296 88.2843Z" fill="#2F2E41"/>
<path d="M140.032 94.49C136.323 94.4896 132.767 93.0162 130.145 90.394C127.523 87.7717 126.05 84.2153 126.049 80.507C126.049 77.9779 126.051 76.0441 126.055 75.7691C126.173 67.1063 128.354 58.5963 132.419 50.9453C125.741 60.0873 122.069 71.0787 121.911 82.3989C121.907 82.6739 121.906 84.6076 121.906 87.1368C121.906 90.8451 123.379 94.4015 126.001 97.0237C128.623 99.646 132.18 101.119 135.888 101.12C138.935 101.119 141.899 100.123 144.329 98.2838C146.758 96.4447 148.521 93.8629 149.35 90.9304C146.789 93.2263 143.471 94.4942 140.032 94.49Z" fill="#3F3D56"/>
<path d="M177.658 57.6412C181.945 57.846 186.118 59.0881 189.82 61.261C193.521 63.4339 196.64 66.4727 198.908 70.1163C201.176 73.76 202.526 77.8997 202.842 82.18C203.158 86.4603 202.43 90.7533 200.721 94.6904C203.193 91.7877 205.009 88.3861 206.047 84.7176C207.085 81.0492 207.32 77.2 206.735 73.4326C206.15 69.6653 204.76 66.0683 202.66 62.8868C200.559 59.7054 197.797 57.0143 194.562 54.9971C191.327 52.9799 187.695 51.6839 183.913 51.1976C180.132 50.7113 176.29 51.046 172.65 52.179C169.01 53.312 165.657 55.2166 162.819 57.763C159.982 60.3093 157.727 63.4375 156.208 66.9344C158.833 63.8463 162.132 61.4024 165.851 59.7911C169.57 58.1799 173.61 57.4443 177.658 57.6412Z" fill="#3F3D56"/>
<path d="M181.96 181.506C178.177 181.506 174.545 180.02 171.848 177.367C169.152 174.714 167.606 171.108 167.544 167.325C167.369 156.363 167.278 142.856 167.278 141.313C167.276 137.557 167.816 133.822 168.883 130.221L168.878 130.22C169.508 128.413 170.269 126.654 171.155 124.957C168.436 128.58 166.272 132.588 164.734 136.85L164.74 136.851C163.673 140.451 163.132 144.187 163.134 147.942C163.134 149.486 163.225 162.992 163.401 173.955C163.462 177.737 165.008 181.344 167.705 183.997C170.402 186.65 174.033 188.136 177.816 188.135C180.935 188.135 183.97 187.123 186.466 185.252C188.961 183.38 190.783 180.75 191.657 177.756C189.006 180.173 185.547 181.511 181.96 181.506Z" fill="#3F3D56"/>
<path d="M52.4336 241.4L57.5132 241.4L59.9302 221.806L52.4323 221.806L52.4336 241.4Z" fill="#FFB8B8"/>
<path d="M67.3106 246.117L51.345 246.117L51.3448 239.949L61.1418 239.948C62.7778 239.948 64.3468 240.598 65.5037 241.755C66.6606 242.912 67.3106 244.481 67.3106 246.117Z" fill="#2F2E41"/>
<path d="M34.2017 241.4L39.2814 241.4L41.6983 221.806L34.2005 221.806L34.2017 241.4Z" fill="#FFB8B8"/>
<path d="M49.0788 246.117L33.1132 246.117L33.1129 239.949L42.91 239.948C44.546 239.948 46.115 240.598 47.2718 241.755C48.4287 242.912 49.0787 244.481 49.0788 246.117Z" fill="#2F2E41"/>
<path d="M38.6409 235.374L33.6789 235.113C33.4231 235.099 33.1724 235.035 32.9415 234.924C32.7106 234.813 32.504 234.657 32.3337 234.466C32.1634 234.275 32.0328 234.051 31.9495 233.809C31.8661 233.567 31.8316 233.31 31.8481 233.055L37.7787 167.393L65.0896 174.762L67.7209 174.044L59.4924 232.173C59.4223 232.61 59.2051 233.01 58.8768 233.308C58.5485 233.605 58.1286 233.781 57.6865 233.807L52.3376 234.057C52.0701 234.071 51.8025 234.031 51.5516 233.937C51.3007 233.843 51.072 233.698 50.88 233.511C50.6879 233.325 50.5367 233.1 50.4359 232.852C50.3351 232.604 50.2868 232.337 50.2942 232.069L51.2634 197.182C51.2679 197.02 51.2119 196.863 51.1063 196.741C51.0007 196.619 50.8532 196.541 50.6929 196.522C50.5326 196.504 50.3711 196.546 50.2402 196.64C50.1093 196.735 50.0186 196.875 49.9858 197.033L40.6391 233.833C40.5509 234.27 40.314 234.662 39.9687 234.944C39.6235 235.225 39.1913 235.378 38.7458 235.377C38.7111 235.377 38.6761 235.376 38.6409 235.374Z" fill="#2F2E41"/>
<path d="M53.3456 113.667C58.9663 113.667 63.5227 109.111 63.5227 103.49C63.5227 97.8694 58.9663 93.313 53.3456 93.313C47.7249 93.313 43.1685 97.8694 43.1685 103.49C43.1685 109.111 47.7249 113.667 53.3456 113.667Z" fill="#FFB8B8"/>
<path d="M36.4014 133.39L37.5204 157.533L37.9249 166.317C37.941 166.7 38.0709 167.069 38.2978 167.377C38.5247 167.685 38.8384 167.919 39.1988 168.047L65.4427 177.554C65.6547 177.633 65.8793 177.672 66.1055 177.67C66.364 177.672 66.6201 177.621 66.8585 177.521C67.0969 177.421 67.3128 177.274 67.4931 177.089C67.6735 176.904 67.8147 176.684 67.9083 176.443C68.0019 176.202 68.046 175.945 68.038 175.686L66.962 132.275C66.8913 128.713 65.5803 125.288 63.2548 122.589C60.9293 119.891 57.7352 118.088 54.2231 117.492C53.9692 117.453 53.7109 117.414 53.4527 117.38C51.2749 117.11 49.0642 117.32 46.9764 117.996C44.8885 118.672 42.9741 119.797 41.3679 121.292C39.7046 122.822 38.3977 124.698 37.5395 126.789C36.6813 128.879 36.2928 131.133 36.4014 133.39Z" fill="#CCCCCC"/>
<path d="M77.9794 172.737C77.3587 172.544 76.7916 172.209 76.3234 171.759C75.8551 171.308 75.4987 170.754 75.2826 170.141C75.0665 169.528 74.9966 168.873 75.0786 168.228C75.1606 167.584 75.3922 166.967 75.7548 166.428L66.8552 154.593L74.535 154.118L81.8089 165.429C82.5876 166.031 83.1294 166.888 83.3394 167.85C83.5494 168.811 83.4141 169.816 82.9572 170.688C82.5004 171.56 81.7511 172.243 80.8409 172.618C79.9307 172.992 78.9176 173.035 77.9794 172.737Z" fill="#FFB8B8"/>
<path d="M71.7221 164.286C71.4863 164.19 71.2718 164.049 71.0911 163.87C70.9104 163.691 70.7669 163.477 70.6691 163.242L57.2612 131.298C56.9981 130.672 56.8608 130.001 56.8572 129.322C56.8537 128.644 56.9838 127.971 57.2403 127.343C57.4968 126.715 57.8746 126.143 58.352 125.661C58.8294 125.179 59.3972 124.796 60.0229 124.533C60.6485 124.271 61.3198 124.134 61.9983 124.131C62.6768 124.128 63.3493 124.259 63.9773 124.516C64.6053 124.772 65.1765 125.151 65.6582 125.629C66.14 126.106 66.5229 126.674 66.785 127.3L80.1929 159.246C80.3911 159.719 80.3933 160.252 80.1991 160.727C80.0048 161.203 79.63 161.581 79.1568 161.781L73.2044 164.279C72.9701 164.378 72.7184 164.43 72.4639 164.431C72.2095 164.432 71.9573 164.383 71.7221 164.286Z" fill="#CCCCCC"/>
<path d="M50.0736 163.159L62.9516 138.501C63.1999 138.027 63.6262 137.671 64.137 137.51C64.6477 137.35 65.2012 137.399 65.676 137.646L84.3684 147.408C84.8426 147.657 85.1989 148.083 85.3592 148.594C85.5195 149.105 85.4707 149.658 85.2234 150.133L72.3454 174.791C72.097 175.265 71.6707 175.621 71.16 175.782C70.6492 175.942 70.0958 175.893 69.621 175.646L50.9286 165.884C50.4544 165.635 50.098 165.209 49.9377 164.698C49.7774 164.187 49.8263 163.634 50.0736 163.159Z" fill="#3F3D56"/>
<path d="M58.71 151.894C58.4811 151.286 58.1131 150.739 57.6356 150.298C57.158 149.858 56.584 149.535 55.9593 149.355C55.3347 149.176 54.6768 149.144 54.038 149.264C53.3993 149.384 52.7974 149.652 52.2804 150.046L39.9414 141.86L39.9204 149.555L51.6409 156.148C52.2879 156.89 53.1754 157.38 54.1478 157.533C55.1202 157.686 56.1153 157.492 56.9587 156.984C57.802 156.476 58.4398 155.688 58.76 154.757C59.0802 153.827 59.0625 152.813 58.71 151.894Z" fill="#FFB8B8"/>
<path d="M43.1094 153.624L33.0252 145.636C31.9342 145.27 30.9485 144.644 30.1526 143.813C29.3567 142.982 28.7743 141.97 28.4555 140.864C28.1367 139.758 28.091 138.592 28.3223 137.465C28.5536 136.337 29.055 135.283 29.7834 134.392L38.9396 122.392C39.5759 121.615 40.4707 121.092 41.4606 120.92C42.4504 120.748 43.4691 120.938 44.3305 121.455C45.1919 121.972 45.8383 122.782 46.1518 123.737C46.4652 124.691 46.4246 125.727 46.0375 126.654L38.7928 138.505L49.4394 143.554C49.687 143.672 49.9068 143.84 50.0844 144.049C50.262 144.258 50.3933 144.502 50.4696 144.765C50.5459 145.028 50.5654 145.304 50.527 145.576C50.4886 145.847 50.393 146.107 50.2466 146.339L45.949 153.14C45.8037 153.37 45.6119 153.566 45.3858 153.717C45.1598 153.867 44.9046 153.969 44.6369 154.015C44.6262 154.017 44.6155 154.018 44.6048 154.02C44.3417 154.06 44.0733 154.045 43.816 153.977C43.5588 153.909 43.3183 153.789 43.1094 153.624Z" fill="#CCCCCC"/>
<path d="M45.6555 110.305C45.6118 110.177 45.598 110.041 45.615 109.907C45.632 109.773 45.6795 109.645 45.7537 109.532C45.828 109.419 45.927 109.325 46.0433 109.257C46.1596 109.188 46.2901 109.147 46.4247 109.137C46.7003 109.152 46.9701 109.222 47.2176 109.344C47.4652 109.467 47.6854 109.638 47.865 109.847C48.2334 110.272 48.6621 110.64 49.1376 110.94C49.6299 111.188 50.2976 111.153 50.5783 110.68C50.8418 110.235 50.6613 109.64 50.5017 109.124C50.0957 107.811 49.8685 106.45 49.8263 105.076C49.7804 103.543 49.9967 101.943 50.8455 100.747C51.9411 99.2034 53.9 98.6174 55.7538 98.6599C57.6077 98.7024 59.4315 99.2747 61.2678 99.6364C61.9017 99.7613 62.6469 99.8252 63.0709 99.3338C63.5217 98.8114 63.3561 97.9659 63.1644 97.2605C62.6667 95.4301 62.1388 93.5376 60.9827 92.0593C59.7325 90.5232 57.9468 89.5179 55.9851 89.2457C54.1018 89.0124 52.19 89.2295 50.4069 89.879C47.5017 90.7947 44.9454 92.5755 43.0798 94.9834C41.1566 97.544 40.3256 100.762 40.7684 103.934C41.2011 106.696 42.6649 109.192 44.8647 110.918L45.6555 110.305Z" fill="#2F2E41"/>
<path d="M174.553 241.481C171.845 240.302 169.448 238.509 167.552 236.245C165.656 233.981 164.312 231.307 163.626 228.435C162.94 225.562 162.931 222.569 163.6 219.693C164.269 216.816 165.597 214.134 167.479 211.859C165.297 213.453 163.478 215.493 162.143 217.843C160.809 220.194 159.99 222.801 159.74 225.492C159.491 228.184 159.817 230.897 160.696 233.453C161.575 236.009 162.988 238.348 164.841 240.316C166.693 242.284 168.944 243.836 171.442 244.868C173.94 245.899 176.629 246.388 179.33 246.302C182.032 246.215 184.684 245.554 187.11 244.364C189.537 243.174 191.683 241.482 193.405 239.399C190.719 241.363 187.564 242.588 184.257 242.953C180.949 243.319 177.603 242.811 174.553 241.481Z" fill="#3F3D56"/>
</g>
<defs>
<clipPath id="clip0_4243_1278">
<rect width="350" height="246.653" fill="white"/>
</clipPath>
</defs>
</svg>
